# xmcd
#
# Track frame offsets:
#	150
#	14270
#	27524
#	42874
#	55018
#	68804
#	81833
#	94380
#	107248
#	119753
#	133210
#	146692
#	157887
#	170076
#	182590
#	196189
#	206884
#	218868
#	231284
#	242703
#	255046
#	266449
#	280474
#
# Disc length: 3904 seconds
#
# Revision: 1
# Processed by: cddbd v1.4PL0 Copyright (c) Steve Scherf et al.
# Submitted via: audiograbber 1.81.02
#
DISCID=560f3e17
DTITLE=The Early Stars of The Grand Ole Opry - The Early Stars of The Grand Ole
DTITLE=Opry
DYEAR=1900
DGENRE=Country
TTITLE0=Uncle Jimmy Thompson - Lynchburg
TTITLE1=DeFord Bailey - Pan American Blues
TTITLE2=DeFord Bailey - Ice Water Blues
TTITLE3=Uncle Dave Macon - I'll Keep My Skillet Good And Greasy 
TTITLE4=Uncle Dave Macon - Uncle Dave's Beloved Solo
TTITLE5=Dr. Humphry Bate And His Possum Tamers - Goin' Up Town
TTITLE6=Dr. Humphry Bate And His Possum Tamers - Billy In The Low Ground
TTITLE7=McGee Brothers - C-H-I-C-K-E-N Spells Chicken
TTITLE8=McGee Brothers - The Tramp
TTITLE9=Paul Warmack And His Gully Jumpers - Stone Rag
TTITLE10=Paul Warmack And His Gully Jumpers - Tennessee Waltz
TTITLE11=Fiddlin' Arthur Smith And His Dixieliners - Chittlin' Cookin' Time In 
TTITLE11=Cheatam County
TTITLE12=Fiddlin' Arthur Smith And his Dixieliners - Red Apple Rag
TTITLE13=Theron Hale And Daughter - Hale's Rag
TTITLE14=Theron Hale And Daughter - Listen To The Mockingbird
TTITLE15=The Delmore Brothers - Southern Moon
TTITLE16=The Delmore Brothers - Weary Lonesome Blues
TTITLE17=Roy Acuff - Wreck On The Highway
TTITLE18=Roy Acuff - Fireball Mail
TTITLE19=Bill Monroe And His Bluegrass Boys - Mule Skinner Blues
TTITLE20=Bill Monroe And His Bluegrass Boys - Orange Blossom Special
TTITLE21=Clayton McMichen - Prohibition Blues
TTITLE22=Clayton McMichen - Bile Them Cabbages Down
EXTD=
EXTT0=
EXTT1=
EXTT2=
EXTT3=
EXTT4=
EXTT5=
EXTT6=
EXTT7=
EXTT8=
EXTT9=
EXTT10=
EXTT11=
EXTT12=
EXTT13=
EXTT14=
EXTT15=
EXTT16=
EXTT17=
EXTT18=
EXTT19=
EXTT20=
EXTT21=
EXTT22=
PLAYORDER=
